<?xml version="1.0" encoding="UTF-8"?>
<svg width="24px" height="24px" viewBox="0 0 24 24" version="1.1" xmlns="http://www.w3.org/2000/svg" xmlns:xlink="http://www.w3.org/1999/xlink">
    <title>60E23AE4-5369-4E8B-8CEE-F33CE0659E09@2x</title>
    <g id="Desktop-(For-Dev)" stroke="none" stroke-width="1" fill="none" fill-rule="evenodd">
        <g id="DEV-|-LAPDOnline-|-Homepage-|-Events-Tab" transform="translate(-965.000000, -2064.000000)">
            <rect fill="#FFFFFF" x="0" y="0" width="1440" height="3334"></rect>
            <g id="3-Boxes" transform="translate(135.000000, 1934.000000)">
                <g id="Contact-Box" transform="translate(800.000000, 0.000000)">
                    <rect id="BlueBG" fill="#052942" transform="translate(185.000000, 153.000000) scale(-1, 1) translate(-185.000000, -153.000000) " x="0" y="0" width="370" height="306"></rect>
                    <g id="icon-phone" transform="translate(30.000000, 130.000000)" fill="#7DDFFF">
                        <path d="M6.92701443,3 C6.56540785,3 6.20919806,3.1296754 5.91235621,3.36741364 L5.86917927,3.38902621 L5.8475908,3.41063877 L3.68874354,5.63673317 L3.71033201,5.65834574 C3.04378774,6.2743039 2.83869725,7.19553939 3.12744325,7.99250297 C3.13014163,7.99790646 3.12474486,8.00871274 3.12744325,8.01411554 C3.71303039,9.69179087 5.21073085,12.9309745 8.13596889,15.8594773 C11.0720012,18.7987865 14.3507506,20.2387236 15.9725844,20.8735929 L15.9941729,20.8735929 C16.833425,21.1545562 17.7428392,20.9546404 18.3904934,20.3981164 L20.5709291,18.2152471 C21.1430236,17.6425141 21.1430236,16.648336 20.5709291,16.075603 L17.7644277,13.2659693 L17.7428392,13.2227442 C17.1707447,12.6500111 16.1560865,12.6500111 15.5839919,13.2227442 L14.2023297,14.6059485 C13.7030964,14.3655088 12.5130321,13.7495507 11.3742398,12.6608174 C10.2435434,11.5801891 9.66605206,10.3374665 9.45286572,9.85118373 L10.834528,8.46797944 C11.4147183,7.88714153 11.4255126,6.91997951 10.8129395,6.34994788 L10.834528,6.32833531 L10.7697625,6.26349761 L8.00643806,3.41063877 L7.98484958,3.38902621 L7.94167264,3.36741364 C7.64483148,3.1296754 7.28862169,3 6.92701443,3 Z M6.92701443,4.38320429 C6.97828722,4.38320429 7.02956002,4.40751825 7.07813373,4.44804199 L9.84145823,7.27928826 L9.90622364,7.34412596 C9.90082687,7.33872316 9.9467022,7.41166506 9.8630467,7.49541393 L8.13596889,9.22441929 L7.8121418,9.52699522 L7.96326111,9.95924656 C7.96326111,9.95924656 8.75663782,12.085383 10.424347,13.6766081 L10.5754663,13.8062835 C12.1811091,15.2732366 14.0727989,16.075603 14.0727989,16.075603 L14.5045683,16.2701161 L16.5554732,14.2169223 C16.6742098,14.0980531 16.6526213,14.0980531 16.7713579,14.2169223 L19.5994478,17.0481685 C19.7181844,17.1670376 19.7181844,17.1238125 19.5994478,17.2426816 L17.4837775,19.3607132 C17.1653479,19.6335717 16.8280275,19.6903052 16.4259424,19.5552263 C14.8607781,18.9392681 11.8195019,17.6019904 9.10745016,14.8869118 C6.37380999,12.1502207 4.94627241,9.04611595 4.4227516,7.53863906 C4.31750763,7.25767569 4.39306728,6.84163412 4.63863633,6.63091125 L4.68181327,6.58768612 L6.77589512,4.44804199 C6.82446953,4.40751825 6.87574163,4.38320429 6.92701443,4.38320429 Z" id="Iocn"></path>
                    </g>
                </g>
            </g>
        </g>
    </g>
</svg>