<?xml version="1.0" encoding="UTF-8"?>
<svg width="24px" height="20px" viewBox="0 0 24 20" version="1.1" xmlns="http://www.w3.org/2000/svg" xmlns:xlink="http://www.w3.org/1999/xlink">
    <title>AEC8D878-E490-4602-BCE5-CE19CFD2368E</title>
    <g id="Desktop-(For-Dev)" stroke="none" stroke-width="1" fill="none" fill-rule="evenodd">
        <g id="DEV-|-LAPDOnline-|-Homepage-|-Option-1" transform="translate(-166.000000, -2937.000000)" fill="#002944">
            <g id="UI-/-Footer-+-Social-Media" transform="translate(0.000000, 2512.000000)">
                <g id="Stay-Connected" transform="translate(136.000000, 320.000000)">
                    <g id="Twitter" transform="translate(30.000000, 105.000000)">
                        <path d="M7.67842137,19.5381877 C16.4518307,19.5381877 21.252551,12.2626775 21.252551,5.96405804 C21.252551,5.75937616 21.252551,5.55469429 21.2432473,5.35001242 C22.1736194,4.68014447 22.9830432,3.83350582 23.625,2.8752225 C22.7690576,3.25667508 21.8479892,3.50787556 20.8804022,3.62882394 C21.8665966,3.04268949 22.6201981,2.10301362 22.9830432,0.986567041 C22.0619748,1.53548661 21.0385654,1.92624291 19.95003,2.14022851 C19.0754802,1.20985636 17.8380852,0.633025624 16.4704382,0.633025624 C13.837485,0.633025624 11.6976291,2.77288157 11.6976291,5.40583475 C11.6976291,5.77798361 11.7441477,6.14082875 11.8185774,6.49437016 C7.85519208,6.29899201 4.33838535,4.39172911 1.98454382,1.50757544 C1.57518007,2.21465828 1.34258703,3.03338577 1.34258703,3.90793559 C1.34258703,5.56399801 2.18922569,7.02468229 3.46383553,7.88062466 C2.68232293,7.8527135 1.94732893,7.6387279 1.30537215,7.28518649 C1.30537215,7.30379393 1.30537215,7.32240137 1.30537215,7.35031254 C1.30537215,9.65763547 2.95213085,11.5928095 5.12920168,12.0300844 C4.72914166,12.1417291 4.31047419,12.1975514 3.87319928,12.1975514 C3.56617647,12.1975514 3.26845738,12.1696403 2.98004202,12.1138179 C3.58478391,14.0117771 5.352491,15.3887279 7.43652461,15.4259428 C5.79906963,16.7098564 3.74294718,17.4727615 1.51005402,17.4727615 C1.12860144,17.4727615 0.74714886,17.4541541 0.375,17.4076355 C2.47764106,18.7473714 4.98964586,19.5381877 7.67842137,19.5381877" id="Icon-Twitter"></path>
                    </g>
                </g>
            </g>
        </g>
    </g>
</svg>