<?xml version="1.0" encoding="UTF-8"?>
<svg width="22px" height="22px" viewBox="0 0 22 22" version="1.1" xmlns="http://www.w3.org/2000/svg" xmlns:xlink="http://www.w3.org/1999/xlink">
    <title>FFF10A10-1B24-48BA-B864-611ABCA4CA10</title>
    <g id="Desktop-(For-Dev)" stroke="none" stroke-width="1" fill="none" fill-rule="evenodd">
        <g id="DEV-|-LAPDOnline-|-Homepage-|-Option-1" transform="translate(-167.000000, -2970.000000)" fill="#002944">
            <g id="UI-/-Footer-+-Social-Media" transform="translate(0.000000, 2512.000000)">
                <g id="Stay-Connected" transform="translate(136.000000, 320.000000)">
                    <g id="IG" transform="translate(31.000000, 138.000000)">
                        <path d="M12.0794314,0.125432531 C14.0659034,0.128865943 14.4789204,0.144457589 15.4785484,0.190067708 C16.6357001,0.242845982 17.4259933,0.426642113 18.1175052,0.69540997 C18.832407,0.973197173 19.4386882,1.34493229 20.0431138,1.94931473 C20.6474963,2.55374033 21.0192314,3.16002158 21.2970618,3.87492336 C21.5657865,4.56643527 21.7495826,5.35672842 21.8023609,6.51388021 C21.847971,7.51350818 21.8635626,7.92652517 21.866996,9.91302482 L21.8675958,10.4211016 C21.867724,10.6012681 21.8677835,10.7926109 21.8677835,10.9962359 L21.8677377,11.2925956 C21.8677068,11.3884039 21.8676599,11.4812799 21.8675958,11.5713618 L21.866996,12.0794314 C21.8635626,14.0659034 21.847971,14.4789204 21.8023609,15.4785484 C21.7495826,16.6357001 21.5657865,17.4259933 21.2970618,18.1175052 C21.0192314,18.832407 20.6474963,19.4386882 20.0431138,20.0431138 C19.4386882,20.6474963 18.832407,21.0192314 18.1175052,21.2970618 C17.4259933,21.5657865 16.6357001,21.7495826 15.4785484,21.8023609 C14.4789204,21.847971 14.0659034,21.8635626 12.0794314,21.866996 L11.5713618,21.8675958 C11.3911979,21.867724 11.1998579,21.8677835 10.9962359,21.8677835 L10.6998718,21.8677377 C10.6040622,21.8677068 10.5111848,21.8676599 10.4211016,21.8675958 L9.91302482,21.866996 C7.92652517,21.8635626 7.51350818,21.847971 6.51388021,21.8023609 C5.35672842,21.7495826 4.56643527,21.5657865 3.87492336,21.2970618 C3.16002158,21.0192314 2.55374033,20.6474963 1.94931473,20.0431138 C1.34493229,19.4386882 0.973197173,18.832407 0.69540997,18.1175052 C0.426642113,17.4259933 0.242845982,16.6357001 0.190067708,15.4785484 C0.144457589,14.4789204 0.128865943,14.0659034 0.125432531,12.0794314 L0.125432531,9.91302482 C0.128865943,7.92652517 0.144457589,7.51350818 0.190067708,6.51388021 C0.242845982,5.35672842 0.426642113,4.56643527 0.69540997,3.87492336 C0.973197173,3.16002158 1.34493229,2.55374033 1.94931473,1.94931473 C2.55374033,1.34493229 3.16002158,0.973197173 3.87492336,0.69540997 C4.56643527,0.426642113 5.35672842,0.242845982 6.51388021,0.190067708 C7.51350818,0.144457589 7.92652517,0.128865943 9.91302482,0.125432531 Z M11.2976119,2.0835267 L10.6948553,2.0835267 C10.5975571,2.08355636 10.5033697,2.08360155 10.4121402,2.08366362 L9.8990307,2.08424973 C7.97876508,2.08749276 7.58576435,2.1020456 6.60316741,2.14687723 C5.54320015,2.19521057 4.96755878,2.37231771 4.58447396,2.52120164 C4.07701711,2.7184189 3.71486235,2.95400074 3.33445312,3.33445313 C2.95400074,3.71486235 2.7184189,4.07701711 2.52120164,4.58447396 C2.37231771,4.96755878 2.19521057,5.54320015 2.14687723,6.60316741 C2.1020456,7.58576435 2.08749276,7.97876508 2.08424973,9.8990307 L2.08366362,10.4121402 C2.08353947,10.5945993 2.08348289,10.7888896 2.08348289,10.9962359 L2.0835267,11.2976119 C2.08355636,11.3949087 2.08360155,11.4890947 2.08366362,11.580323 L2.08424973,12.0934251 C2.08749276,14.0136635 2.1020456,14.4066642 2.14687723,15.3892612 C2.19521057,16.4492284 2.37231771,17.0248698 2.52120164,17.4079546 C2.7184189,17.9154115 2.9540439,18.2775662 3.33445312,18.6579754 C3.71486235,19.0384278 4.07701711,19.2740097 4.58447396,19.4712269 C4.96755878,19.6201109 5.54320015,19.797218 6.60316741,19.8455513 C7.54471646,19.888515 7.94480784,19.9036705 9.6667107,19.9077132 L10.1471123,19.9085267 C10.232585,19.9086239 10.3208626,19.9087029 10.4120984,19.908765 L11.5803653,19.908765 C11.6716,19.9087029 11.7598766,19.9086239 11.8453484,19.9085267 L12.3257452,19.9077132 C14.0476334,19.9036705 14.4477476,19.888515 15.3892612,19.8455513 C16.4492284,19.797218 17.0248698,19.6201109 17.4079546,19.4712269 C17.9154115,19.2740097 18.2775662,19.0384278 18.6579754,18.6579754 C19.0384278,18.2775662 19.2740097,17.9154115 19.4712269,17.4079546 C19.6201109,17.0248698 19.797218,16.4492284 19.8455513,15.3892612 C19.888515,14.4476058 19.9036705,14.0474372 19.9077132,12.3256536 L19.9085267,11.8452878 C19.9086239,11.7598218 19.9087029,11.6715512 19.908765,11.580323 L19.908765,10.4121402 C19.9087029,10.3209106 19.9086239,10.2326387 19.9085267,10.1471715 L19.9077132,9.66679887 C19.9036705,7.94499141 19.888515,7.54482281 19.8455513,6.60316741 C19.797218,5.54320015 19.6201109,4.96755878 19.4712269,4.58447396 C19.2740097,4.07701711 19.0384278,3.71486235 18.6579754,3.33445313 C18.2775662,2.95400074 17.9154115,2.7184189 17.4079546,2.52120164 C17.0248698,2.37231771 16.4492284,2.19521057 15.3892612,2.14687723 C14.4066642,2.1020456 14.0136635,2.08749276 12.0934251,2.08424973 L11.580323,2.08366362 C11.3978664,2.08353947 11.2035791,2.08348289 10.9962359,2.08348289 Z M10.9962359,5.41352009 C14.079471,5.41352009 16.5789085,7.91295759 16.5789085,10.9962359 C16.5789085,14.079471 14.079471,16.5789085 10.9962359,16.5789085 C7.91295759,16.5789085 5.41352009,14.079471 5.41352009,10.9962359 C5.41352009,7.91295759 7.91295759,5.41352009 10.9962359,5.41352009 Z M10.9962359,7.37235789 C12.9976243,7.37235789 14.6200707,8.99480432 14.6200707,10.9962359 C14.6200707,12.9976243 12.9976243,14.6200707 10.9962359,14.6200707 C8.99480432,14.6200707 7.37235789,12.9976243 7.37235789,10.9962359 C7.37235789,8.99480432 8.99480432,7.37235789 10.9962359,7.37235789 Z M16.7994725,3.88834449 C17.5199844,3.88834449 18.1040841,4.4724442 18.1040841,5.1929561 C18.1040841,5.91346801 17.5199844,6.49752455 16.7994725,6.49752455 C16.0790037,6.49752455 15.494904,5.91346801 15.494904,5.1929561 C15.494904,4.4724442 16.0790037,3.88834449 16.7994725,3.88834449 Z" id="icon-ig"></path>
                    </g>
                </g>
            </g>
        </g>
    </g>
</svg>